<svg width="46" height="46" fill="none" xmlns="http://www.w3.org/2000/svg"><g clip-path="url(#a)"><path d="M46 23c0 11.48-8.411 20.996-19.406 22.72V29.649h5.359L32.973 23h-6.38v-4.314c0-1.82.892-3.592 3.749-3.592h2.9v-5.66s-2.632-.45-5.149-.45c-5.253 0-8.687 3.184-8.687 8.949V23h-5.84v6.648h5.84v16.073C8.411 43.996 0 34.48 0 23 0 10.298 10.298 0 23 0s23 10.298 23 23Z" fill="#1877F2"/><path d="M31.953 29.648 32.973 23h-6.38v-4.314c0-1.82.892-3.592 3.749-3.592h2.9v-5.66s-2.632-.45-5.148-.45c-5.254 0-8.688 3.184-8.688 8.949V23h-5.84v6.648h5.84v16.073a23.178 23.178 0 0 0 7.188 0V29.648h5.359Z" fill="#fff"/></g><defs><clipPath id="a"><path fill="#fff" d="M0 0h46v46H0z"/></clipPath></defs></svg>