<svg width="50" height="38" fill="none" xmlns="http://www.w3.org/2000/svg"><g clip-path="url(#a)"><path d="M3.41 37.755h7.954V18.436l-5.21-9.095L0 9.914v24.431a3.408 3.408 0 0 0 3.41 3.41Z" fill="#0085F7"/><path d="M38.637 37.755h7.954a3.408 3.408 0 0 0 3.41-3.41V9.914l-6.147-.573-5.217 9.095v19.319Z" fill="#00A94B"/><path d="m38.636 3.664-4.672 8.916 4.672 5.856L50 9.914V5.368c0-4.213-4.81-6.62-8.182-4.09l-3.182 2.386Z" fill="#FFBC00"/><path fill-rule="evenodd" clip-rule="evenodd" d="M11.364 18.437 6.91 9.03l4.453-5.367L25 13.89 38.636 3.664v14.773L25 28.664 11.364 18.437Z" fill="#FF4131"/><path d="M0 5.368v4.546l11.364 8.522V3.664L8.182 1.277C4.81-1.25 0 1.155 0 5.368Z" fill="#E51C19"/></g><defs><clipPath id="a"><path fill="#fff" d="M0 0h50v38H0z"/></clipPath></defs></svg>