<svg width="50" height="50" fill="none" xmlns="http://www.w3.org/2000/svg"><g clip-path="url(#a)"><path d="M17.24 32.257c-.983-.665-1.664-1.635-2.036-2.918l2.283-.941c.207.79.57 1.401 1.086 1.835.513.435 1.138.648 1.868.648.747 0 1.388-.226 1.924-.68a2.174 2.174 0 0 0 .806-1.734c0-.717-.283-1.303-.848-1.756-.566-.454-1.277-.681-2.125-.681h-1.32v-2.26h1.185c.73 0 1.345-.198 1.845-.593.5-.394.75-.934.75-1.621 0-.612-.224-1.099-.671-1.464-.447-.365-1.013-.55-1.7-.55-.672 0-1.205.178-1.6.537-.394.359-.68.8-.861 1.319l-2.26-.94c.3-.85.849-1.6 1.655-2.247.805-.648 1.835-.974 3.085-.974.924 0 1.757.178 2.493.536.737.359 1.316.855 1.734 1.487.418.635.625 1.345.625 2.135 0 .806-.194 1.486-.582 2.046a4.008 4.008 0 0 1-1.431 1.286v.135c.747.312 1.355.79 1.835 1.43.477.642.718 1.409.718 2.303 0 .895-.227 1.695-.681 2.395-.454.7-1.083 1.254-1.879 1.655-.799.401-1.697.605-2.694.605-1.154.003-2.22-.329-3.204-.993Zm14.023-11.329-2.507 1.812-1.253-1.901L32 17.596h1.723v15.299h-2.46V20.928Z" fill="#0085F7"/><path d="M38.158 38.158H11.842l-3.767 5.55L11.842 50h26.316l3.112-6.694-3.112-5.148Z" fill="#00A94B"/><path d="M38.158 0H3.948A3.946 3.946 0 0 0 0 3.947v34.21l5.921 4.21 5.921-4.21V11.843h26.316l4.051-5.921L38.158 0Z" fill="#0085F7"/><path d="M0 38.158v7.895A3.946 3.946 0 0 0 3.947 50h7.895V38.158H0Z" fill="#00802E"/><path d="m50 11.842-5.92-3.81-5.922 3.81v26.316l5.325 2.78L50 38.158V11.842Z" fill="#FFBC00"/><path d="M50 11.842V3.947A3.946 3.946 0 0 0 46.053 0h-7.895v11.842H50Z" fill="#0067D5"/><path d="M38.158 50 50 38.158H38.158V50Z" fill="#FF4131"/></g><defs><clipPath id="a"><path fill="#fff" d="M0 0h50v50H0z"/></clipPath></defs></svg>