<svg width="23" height="23" fill="none" xmlns="http://www.w3.org/2000/svg"><g clip-path="url(#a)"><path d="m5.25 13.758-.791 2.953-2.891.061a11.31 11.31 0 0 1-1.354-5.384c0-1.884.458-3.661 1.27-5.226l2.575.472 1.127 2.559a6.754 6.754 0 0 0-.364 2.195c0 .834.15 1.633.428 2.37Z" fill="#FBBB00"/><path d="M22.739 9.265c.13.687.198 1.397.198 2.123a11.36 11.36 0 0 1-4.249 8.86l-3.242-.166-.459-2.864a6.772 6.772 0 0 0 2.914-3.458h-6.076V9.265H22.74Z" fill="#518EF8"/><path d="M18.689 20.247v.001a11.314 11.314 0 0 1-7.113 2.502 11.36 11.36 0 0 1-10.008-5.978l3.682-3.014a6.756 6.756 0 0 0 9.738 3.46l3.7 3.03Z" fill="#28B446"/><path d="m18.828 2.642-3.68 3.013a6.758 6.758 0 0 0-9.96 3.538l-3.703-3.03A11.36 11.36 0 0 1 11.574.025c2.758 0 5.285.982 7.253 2.616Z" fill="#F14336"/></g><defs><clipPath id="a"><path fill="#fff" transform="translate(.214 .026)" d="M0 0h22.724v22.724H0z"/></clipPath></defs></svg>