<svg width="46" height="46" fill="none" xmlns="http://www.w3.org/2000/svg"><g clip-path="url(#a)"><path d="M2.875 3.13C-.739 6.885 0 10.873 0 22.99c0 10.063-1.755 20.15 7.433 22.525 2.87.738 28.292.738 31.158-.004 3.825-.987 6.938-4.09 7.363-9.5.06-.756.06-25.272-.002-26.042-.452-5.764-4-9.085-8.674-9.758C36.206.056 35.992.01 30.495 0 10.996.01 6.722-.86 2.875 3.13Z" fill="url(#b)"/><path d="M22.996 6.016c-6.96 0-13.568-.619-16.092 5.86-1.043 2.675-.891 6.15-.891 11.126 0 4.366-.14 8.47.89 11.124 2.52 6.482 9.182 5.861 16.09 5.861 6.664 0 13.535.694 16.09-5.86 1.044-2.703.891-6.126.891-11.125 0-6.636.366-10.92-2.852-14.136-3.258-3.258-7.665-2.85-14.134-2.85h.008Zm-1.522 3.061C35.991 9.054 37.84 7.44 36.82 29.86c-.362 7.929-6.4 7.059-13.82 7.059-13.533 0-13.922-.387-13.922-13.925 0-13.694 1.074-13.909 12.397-13.92v.003Zm10.588 2.82a2.038 2.038 0 1 0 0 4.075 2.038 2.038 0 0 0 0-4.075Zm-9.066 2.382a8.722 8.722 0 0 0 0 17.444 8.719 8.719 0 0 0 8.72-8.721c0-4.817-3.903-8.723-8.72-8.723Zm0 3.061c7.485 0 7.494 11.324 0 11.324-7.482 0-7.494-11.324 0-11.324Z" fill="#fff"/></g><defs><linearGradient id="b" x1="2.964" y1="43.062" x2="45.716" y2="6.061" gradientUnits="userSpaceOnUse"><stop stop-color="#FD5"/><stop offset=".5" stop-color="#FF543E"/><stop offset="1" stop-color="#C837AB"/></linearGradient><clipPath id="a"><path fill="#fff" d="M0 0h46v46H0z"/></clipPath></defs></svg>