<svg width="42" height="43" fill="none" xmlns="http://www.w3.org/2000/svg"><rect y=".908" width="41.55" height="41.297" rx="8.326" fill="#28445D"/><path d="M20.263 33.922c-2.25 0-4.262-.532-6.038-1.598-1.777-1.095-3.183-2.575-4.219-4.44-1.036-1.865-1.554-3.967-1.554-6.306 0-2.368.533-4.484 1.599-6.35a11.937 11.937 0 0 1 4.44-4.395c1.865-1.096 3.967-1.643 6.305-1.643 2.31 0 4.381.547 6.217 1.643a11.609 11.609 0 0 1 4.396 4.396c1.095 1.865 1.657 3.981 1.687 6.35l-1.51.754c0 2.19-.503 4.16-1.51 5.906a11.158 11.158 0 0 1-4.04 4.174c-1.688 1.006-3.612 1.51-5.773 1.51Zm.533-3.374c1.658 0 3.123-.385 4.396-1.155a8.49 8.49 0 0 0 3.064-3.241c.77-1.362 1.154-2.886 1.154-4.574 0-1.717-.384-3.241-1.154-4.573a8.49 8.49 0 0 0-3.064-3.242c-1.273-.799-2.738-1.199-4.396-1.199-1.628 0-3.108.4-4.44 1.2a8.833 8.833 0 0 0-3.108 3.24c-.77 1.333-1.155 2.857-1.155 4.574 0 1.688.385 3.212 1.155 4.574a8.833 8.833 0 0 0 3.108 3.241c1.332.77 2.812 1.155 4.44 1.155Zm10.39 3.152a2.06 2.06 0 0 1-1.376-.488c-.355-.355-.533-.814-.533-1.377V24.51l.844-3.863 2.975.932v10.258c0 .562-.178 1.02-.533 1.376-.355.326-.814.488-1.376.488Z" fill="#EDEDED"/><circle cx="20.774" cy="21.556" r="2.733" fill="#EDEDED"/></svg>