<svg width="50" height="50" fill="none" xmlns="http://www.w3.org/2000/svg"><path d="M48.438 10.938H26.561a1.563 1.563 0 0 0 0 3.125h17.322l-9.6 7.466-6.884-4.378-1.675 2.637 7.813 4.97a1.564 1.564 0 0 0 1.797-.084l11.54-8.98v20.244H26.562a1.563 1.563 0 0 0 0 3.125h21.875c.863 0 1.563-.7 1.563-1.562v-25c0-.862-.7-1.563-1.563-1.563Z" fill="#1976D2"/><path d="M27.56 1.923a1.535 1.535 0 0 0-1.285-.331l-25 4.687A1.558 1.558 0 0 0 0 7.814v34.375c0 .75.534 1.397 1.275 1.534l25 4.688a1.556 1.556 0 0 0 1.284-.331c.36-.298.566-.741.566-1.204V3.126c0-.466-.206-.906-.566-1.203Z" fill="#2196F3"/><path d="M14.063 35.938c-4.307 0-7.813-4.206-7.813-9.375 0-5.168 3.506-9.374 7.813-9.374 4.306 0 7.812 4.206 7.812 9.375 0 5.168-3.506 9.374-7.813 9.374Zm0-15.625c-2.585 0-4.688 2.804-4.688 6.25 0 3.447 2.103 6.25 4.688 6.25 2.584 0 4.687-2.803 4.687-6.25 0-3.446-2.103-6.25-4.688-6.25Z" fill="#FAFAFA"/></svg>