<svg width="50" height="50" fill="none" xmlns="http://www.w3.org/2000/svg"><path d="M25 50c13.807 0 25-11.193 25-25S38.807 0 25 0 0 11.193 0 25s11.193 25 25 25Z" fill="#505050"/><path d="M18.265 11.248a5.263 5.263 0 0 1 2.123.646l.899 8.673-.001.003a5.298 5.298 0 0 1-2.84 1.257l-.002.004a15.417 15.417 0 0 0 8.71 9.699c.001 0 .003 0 .004-.003a5.295 5.295 0 0 1 1.554-2.687c0-.001.002-.002.003-.001l8.525 1.823a5.27 5.27 0 0 1 .416 2.18c-.068 3.04-2.684 5.369-5.719 5.189-11.317-.671-19.99-10.33-19.444-21.654.147-3.036 2.742-5.387 5.772-5.129ZM37.96 24.415a.66.66 0 0 1-.66-.66c0-1.56-.307-3.077-.912-4.508a11.53 11.53 0 0 0-2.479-3.677 11.532 11.532 0 0 0-3.677-2.479 11.51 11.51 0 0 0-4.508-.912.66.66 0 1 1 0-1.32c1.738 0 3.427.342 5.022 1.017a12.838 12.838 0 0 1 4.096 2.76 12.842 12.842 0 0 1 2.761 4.097 12.822 12.822 0 0 1 1.016 5.021.66.66 0 0 1-.66.66Z" fill="#fff"/><path d="M34.76 24.415a.66.66 0 0 1-.66-.66 8.344 8.344 0 0 0-2.454-5.923 8.348 8.348 0 0 0-5.922-2.454.66.66 0 0 1 0-1.32 9.667 9.667 0 0 1 6.857 2.84 9.66 9.66 0 0 1 2.076 3.08 9.638 9.638 0 0 1 .764 3.776.66.66 0 0 1-.66.66Z" fill="#fff"/><path d="M31.56 24.414a.66.66 0 0 1-.66-.66 5.144 5.144 0 0 0-1.516-3.66 5.144 5.144 0 0 0-3.662-1.518.66.66 0 1 1 0-1.32 6.483 6.483 0 0 1 4.595 1.903 6.474 6.474 0 0 1 1.903 4.595.66.66 0 0 1-.66.66Z" fill="#fff"/></svg>