<svg width="50" height="50" fill="none" xmlns="http://www.w3.org/2000/svg"><path d="M25 50c13.804 0 25-11.196 25-25S38.804 0 25 0 0 11.196 0 25s11.188 25 25 25Z" fill="#2CA01C"/><path d="M16.664 15.275c-5.37 0-9.726 4.354-9.726 9.725 0 5.37 4.347 9.717 9.726 9.717h1.39V31.11h-1.39a6.113 6.113 0 0 1-6.11-6.11 6.113 6.113 0 0 1 6.11-6.11h3.34v18.89a3.61 3.61 0 0 0 3.607 3.608V15.275h-6.947Zm16.672 19.442c5.37 0 9.725-4.355 9.725-9.717s-4.346-9.717-9.725-9.717h-1.39v3.607h1.39a6.113 6.113 0 0 1 6.11 6.11 6.113 6.113 0 0 1-6.11 6.11h-3.34V12.22a3.61 3.61 0 0 0-3.607-3.608v26.105h6.947Z" fill="#fff"/></svg>