<svg width="29" height="29" fill="none" xmlns="http://www.w3.org/2000/svg"><path d="M2.985.515H26.68A2.32 2.32 0 0 1 29 2.835v23.694a2.32 2.32 0 0 1-2.32 2.32H2.985a2.32 2.32 0 0 1-2.319-2.32V2.834A2.32 2.32 0 0 1 2.985.515Z" fill="#000"/><path d="m7.607 18.162.058.163a2.91 2.91 0 0 1-.058-.163Zm2.3-3.716c.103-.882.448-1.375 1.102-1.88.935-.685 2.101-.298 2.101-.298V9.97c.284-.007.568.011.847.053v2.957s-1.166-.385-2.101.297c-.651.506-.999.999-1.102 1.881-.005.477.081 1.105.477 1.643a4.536 4.536 0 0 1-.301-.18c-.867-.61-1.028-1.527-1.023-2.174Zm8.866-8.725a4.093 4.093 0 0 1-.975-1.998h.808s-.159 1.366 1.012 2.708l.018.018a4.435 4.435 0 0 1-.865-.73l.002.002Zm3.892 2.083v2.898s-1.03-.042-1.795-.245c-1.067-.283-1.75-.719-1.75-.719s-.475-.312-.51-.332v5.984a6.05 6.05 0 0 1-.354 1.86c-.348.906-.884 1.504-.983 1.625 0 0-.656.808-1.807 1.349-1.038.488-1.951.477-2.224.488 0 0-1.575.064-2.997-.895a6.087 6.087 0 0 1-.858-.72l.007.007c1.419.964 2.996.896 2.996.896.273-.012 1.186 0 2.225-.489 1.15-.541 1.806-1.349 1.806-1.349.1-.12.638-.72.984-1.625a6.036 6.036 0 0 0 .354-1.86V8.695c.04.022.51.332.51.332s.684.436 1.75.72c.765.202 1.795.244 1.795.244v-2.27c.354.08.655.103.849.08l.002.003Z" fill="#EE1D52"/><path d="M21.815 7.718v2.27s-1.03-.04-1.795-.243c-1.067-.284-1.75-.72-1.75-.72s-.475-.312-.51-.332v5.984c0 .333-.088 1.166-.354 1.86-.348.906-.884 1.504-.983 1.625 0 0-.656.808-1.807 1.35-1.038.488-1.951.476-2.224.488 0 0-1.575.063-2.997-.896l-.006-.007a6.181 6.181 0 0 1-.423-.477 5.753 5.753 0 0 1-.8-1.452v-.005c-.115-.336-.348-1.15-.315-1.933.057-1.384.523-2.238.649-2.451a5.802 5.802 0 0 1 1.256-1.538 5.265 5.265 0 0 1 1.494-.885 4.983 4.983 0 0 1 1.855-.39v2.3s-1.166-.385-2.101.297c-.652.506-1 .999-1.103 1.881-.004.65.157 1.565 1.028 2.178.103.069.202.128.301.18.152.205.337.386.548.535.854.564 1.564.603 2.48.238.61-.244 1.067-.794 1.278-1.406.134-.383.132-.766.132-1.162V3.723h2.125c.088.521.33 1.265.975 1.998.26.277.548.523.864.73.093.103.57.599 1.186.907.315.158.652.279.995.36h.002Z" fill="#fff"/><path d="m7.322 16.466.053.152c-.007-.017-.029-.07-.053-.152Z" fill="#69C9D0"/><path d="M11.25 10.36a5.258 5.258 0 0 0-1.493.885 5.73 5.73 0 0 0-1.257 1.54c-.123.214-.591 1.063-.649 2.451-.03.786.205 1.598.315 1.934v.004c.07.192.348.876.8 1.453.133.167.274.325.423.477a5.938 5.938 0 0 1-1.271-1.19 5.687 5.687 0 0 1-.797-1.446v-.006c-.114-.337-.35-1.151-.315-1.936.058-1.384.524-2.238.65-2.451a5.73 5.73 0 0 1 1.256-1.54 5.267 5.267 0 0 1 1.494-.885c.34-.14.693-.244 1.056-.312a5.255 5.255 0 0 1 1.65-.025v.658a4.988 4.988 0 0 0-1.86.39h-.002Z" fill="#69C9D0"/><path d="M17.8 3.723h-2.126v11.282c0 .396 0 .779-.132 1.162-.216.61-.673 1.161-1.278 1.406-.913.367-1.628.325-2.48-.238a2.28 2.28 0 0 1-.548-.53c.726.385 1.375.378 2.178.057.61-.244 1.068-.796 1.279-1.406.134-.383.132-.765.132-1.162V3.012h2.935s-.036.28.04.713v-.002Zm4.015 3.368v.627a4.557 4.557 0 0 1-.995-.36c-.611-.304-1.091-.804-1.186-.907.11.07.22.134.337.196.75.372 1.483.486 1.846.446l-.002-.002Zm-3.944 18.031c0 .08.011.158.036.237 0 .007.004.011.004.018a.897.897 0 0 0 .858.631v.907c-.442 0-.757.013-1.239-.269a1.777 1.777 0 0 1-.853-1.533c0-.616.343-1.272.93-1.58.425-.222.748-.222 1.166-.222v.906c-.494 0-.895.4-.895.896l-.004.01-.003-.002Z" fill="#69C9D0"/><path d="M19.67 25.122a.797.797 0 0 1-.035.237c0 .007-.004.011-.004.018a.897.897 0 0 1-.858.631v.907c.44 0 .757.013 1.236-.269.548-.325.858-.917.858-1.533 0-.616-.343-1.272-.93-1.58-.425-.222-.748-.222-1.167-.222v.906c.495 0 .896.4.896.896v.01h.004v-.002Z" fill="#EE1D52"/><path d="M4.9 22.486h3.317l-.308.913h-.867v3.496H5.975v-3.496H4.9v-.913Zm8.796 0v.913h1.075v3.496h1.07v-3.496h.867l.308-.913h-3.323.003Zm-4.757 1.038a.516.516 0 1 0 0-1.033.516.516 0 0 0 0 1.033Zm-.517 3.368h1.047V23.89H8.422v3.003Zm4.816-3.392h-1.226l-1.056 1.056v-2.068h-1.04L9.91 26.89h1.052v-1.148l.326-.297 1.02 1.445h1.123l-1.477-2.11 1.283-1.278V23.5Zm10.052 1.282 1.283-1.282h-1.226l-1.056 1.056v-2.068h-1.04l-.007 4.404h1.052v-1.148l.33-.297 1.02 1.445h1.123l-1.476-2.11h-.003Zm-2.695.326c0 .995-.818 1.802-1.828 1.802-1.01 0-1.828-.807-1.828-1.802 0-.994.818-1.802 1.828-1.802 1.01 0 1.828.808 1.828 1.802Zm-.933 0a.895.895 0 1 0-1.79-.001.895.895 0 0 0 1.79.001Z" fill="#fff"/></svg>