<svg width="50" height="50" fill="none" xmlns="http://www.w3.org/2000/svg"><g clip-path="url(#a)" fill="#505050"><path d="M26.671 24.146 37.923 40.24h-4.618l-9.181-13.132v-.001l-1.348-1.928L12.05 9.837h4.618l8.655 12.381 1.348 1.928Z"/><path d="M44.597 0H5.403A5.403 5.403 0 0 0 0 5.403v39.194A5.403 5.403 0 0 0 5.403 50h39.194A5.403 5.403 0 0 0 50 44.597V5.403A5.403 5.403 0 0 0 44.597 0ZM31.892 42.401 22.6 28.879 10.967 42.4H7.961l13.304-15.465L7.961 7.573h10.147l8.799 12.805L37.922 7.573h3.007L28.242 22.321 42.038 42.4H31.892Z"/></g><defs><clipPath id="a"><path fill="#fff" d="M0 0h50v50H0z"/></clipPath></defs></svg>