<svg width="48" height="48" fill="none" xmlns="http://www.w3.org/2000/svg"><path d="M40.037 0H8.043A7.963 7.963 0 0 0 .08 7.963v31.994a7.963 7.963 0 0 0 7.963 7.963h31.994A7.963 7.963 0 0 0 48 39.957V7.963A7.963 7.963 0 0 0 40.037 0Z" fill="url(#a)"/><path fill-rule="evenodd" clip-rule="evenodd" d="M40.375 23.54c0 8.79-7.181 15.917-16.039 15.917-2.814 0-5.457-.718-7.753-1.981L7.7 40.298l2.895-8.537a15.745 15.745 0 0 1-2.302-8.217c0-8.792 7.181-15.917 16.04-15.917 8.857 0 16.038 7.128 16.038 15.917l.003-.003ZM24.336 10.158c-7.439 0-13.486 6.002-13.486 13.38 0 2.929.952 5.64 2.569 7.847l-1.686 4.97 5.182-1.647a13.473 13.473 0 0 0 7.421 2.212c7.436 0 13.486-6.002 13.486-13.381 0-7.38-6.05-13.381-13.486-13.381Zm8.1 17.048c-.098-.162-.362-.26-.754-.455s-2.329-1.14-2.688-1.27c-.36-.128-.623-.194-.883.195-.264.39-1.015 1.27-1.245 1.53-.228.26-.458.293-.85.099-.396-.195-1.662-.608-3.162-1.937-1.167-1.036-1.957-2.311-2.188-2.703-.227-.39-.024-.602.17-.797.177-.176.396-.454.59-.682.198-.227.264-.392.393-.653.131-.26.065-.488-.033-.682-.1-.195-.884-2.114-1.213-2.898-.326-.778-.652-.751-.883-.751-.23 0-.652.069-.652.069s-.788.099-1.15.488c-.36.389-1.377 1.335-1.377 3.254 0 1.918 1.407 3.774 1.605 4.035.197.26 2.718 4.328 6.717 5.891 3.996 1.563 3.996 1.042 4.718.976.718-.063 2.326-.943 2.655-1.853.33-.91.33-1.691.23-1.853v-.003Z" fill="#fff"/><defs><linearGradient id="a" x1="24.04" y1="47.92" x2="24.04" y2="0" gradientUnits="userSpaceOnUse"><stop stop-color="#20B038"/><stop offset="1" stop-color="#60D66A"/></linearGradient></defs></svg>