<svg width="163" height="38" fill="none" xmlns="http://www.w3.org/2000/svg"><path d="M52.74 30.981c-1.96 0-3.713-.464-5.26-1.392-1.546-.954-2.77-2.243-3.673-3.867-.902-1.624-1.353-3.454-1.353-5.49 0-2.063.464-3.906 1.392-5.53a10.395 10.395 0 0 1 3.867-3.828c1.624-.953 3.454-1.43 5.49-1.43 2.011 0 3.816.477 5.414 1.43a10.11 10.11 0 0 1 3.828 3.828c.954 1.624 1.443 3.467 1.47 5.53l-1.316.657c0 1.908-.438 3.622-1.314 5.143a9.717 9.717 0 0 1-3.519 3.634c-1.47.877-3.145 1.315-5.027 1.315Zm.463-2.939c1.444 0 2.72-.335 3.828-1.005a7.391 7.391 0 0 0 2.668-2.823c.67-1.185 1.006-2.513 1.006-3.982 0-1.495-.335-2.823-1.006-3.983a7.391 7.391 0 0 0-2.668-2.823c-1.108-.696-2.384-1.044-3.828-1.044-1.417 0-2.706.348-3.866 1.044a7.69 7.69 0 0 0-2.707 2.823c-.67 1.16-1.005 2.488-1.005 3.983 0 1.469.335 2.797 1.005 3.982a7.69 7.69 0 0 0 2.707 2.823c1.16.67 2.449 1.005 3.866 1.005Zm9.048 2.746c-.464 0-.863-.142-1.198-.426-.31-.309-.464-.708-.464-1.198v-6.38l.734-3.364 2.591.812v8.932c0 .49-.155.889-.464 1.198-.31.284-.709.426-1.199.426Zm12.172 0c-1.083 0-2.037-.284-2.861-.851-.825-.593-1.47-1.405-1.934-2.436-.464-1.031-.696-2.217-.696-3.557V2.213c0-.49.142-.876.426-1.16.309-.31.709-.464 1.198-.464.464 0 .838.155 1.122.464.309.284.464.67.464 1.16v21.73c0 1.058.206 1.934.618 2.63.438.67.993 1.005 1.663 1.005h.967c.412 0 .747.155 1.005.464.258.284.387.658.387 1.122 0 .49-.194.889-.58 1.198-.361.284-.838.426-1.431.426h-.348Zm14.415.193c-1.959 0-3.712-.464-5.258-1.392-1.547-.954-2.771-2.243-3.674-3.867-.902-1.624-1.353-3.454-1.353-5.49 0-2.063.464-3.906 1.392-5.53a10.394 10.394 0 0 1 3.867-3.828c1.624-.953 3.454-1.43 5.49-1.43 2.011 0 3.816.477 5.414 1.43a10.11 10.11 0 0 1 3.828 3.828c.954 1.624 1.443 3.467 1.469 5.53l-1.315.657c0 1.908-.438 3.622-1.314 5.143a9.716 9.716 0 0 1-3.519 3.634c-1.47.877-3.145 1.315-5.027 1.315Zm.464-2.939c1.444 0 2.72-.335 3.828-1.005a7.392 7.392 0 0 0 2.668-2.823c.67-1.185 1.006-2.513 1.006-3.982 0-1.495-.335-2.823-1.006-3.983a7.392 7.392 0 0 0-2.668-2.823c-1.108-.696-2.384-1.044-3.828-1.044-1.417 0-2.706.348-3.866 1.044a7.69 7.69 0 0 0-2.707 2.823c-.67 1.16-1.005 2.488-1.005 3.983 0 1.469.335 2.797 1.005 3.982a7.69 7.69 0 0 0 2.707 2.823c1.16.67 2.449 1.005 3.866 1.005Zm9.048 2.746c-.464 0-.863-.142-1.198-.426-.31-.309-.464-.708-.464-1.198v-6.38l.734-3.364 2.591.812v8.932c0 .49-.155.889-.464 1.198-.31.284-.709.426-1.199.426Zm9.659 0c-.49 0-.89-.142-1.199-.426-.309-.309-.464-.721-.464-1.237V11.3c0-.516.155-.915.464-1.199.309-.31.709-.464 1.199-.464.489 0 .876.155 1.16.464.309.284.464.683.464 1.199v17.825c0 .516-.155.928-.464 1.237-.284.284-.671.426-1.16.426Zm-.039-24.979c-.619 0-1.147-.22-1.585-.657a2.288 2.288 0 0 1-.658-1.624c0-.645.219-1.173.658-1.586.464-.412.992-.618 1.585-.618s1.108.206 1.547.618c.464.413.696.941.696 1.586 0 .618-.22 1.16-.658 1.624a2.159 2.159 0 0 1-1.585.657Zm27.22 24.979c-.49 0-.889-.155-1.199-.464-.309-.31-.464-.696-.464-1.16v-9.86c0-1.573-.296-2.849-.889-3.828-.567-1.006-1.353-1.753-2.359-2.243-1.005-.516-2.152-.773-3.441-.773-1.211 0-2.307.245-3.287.734-.953.464-1.714 1.109-2.281 1.934-.567.799-.851 1.727-.851 2.784h-2.242c.051-1.624.477-3.068 1.276-4.331a8.916 8.916 0 0 1 3.286-3.055c1.367-.747 2.888-1.121 4.563-1.121 1.805 0 3.416.387 4.833 1.16 1.444.748 2.578 1.856 3.403 3.325.851 1.47 1.276 3.274 1.276 5.414v9.86c0 .464-.155.85-.464 1.16-.309.309-.696.464-1.16.464Zm-16.395 0c-.515 0-.928-.142-1.237-.426-.283-.309-.425-.708-.425-1.198V11.3c0-.516.142-.915.425-1.199.309-.31.722-.464 1.237-.464.49 0 .877.155 1.16.464.31.284.464.683.464 1.199v17.864c0 .49-.154.889-.464 1.198-.283.284-.67.426-1.16.426Zm34.287.193c-2.114 0-3.983-.451-5.607-1.353a10.11 10.11 0 0 1-3.828-3.828c-.928-1.624-1.392-3.48-1.392-5.568 0-2.114.438-3.97 1.315-5.568.876-1.624 2.075-2.9 3.596-3.828 1.546-.928 3.325-1.392 5.336-1.392 1.959 0 3.66.45 5.104 1.353 1.469.877 2.59 2.1 3.364 3.673.799 1.573 1.198 3.364 1.198 5.375 0 .438-.142.8-.425 1.083-.284.258-.645.386-1.083.386h-16.162v-2.668h16.356l-1.663 1.16c.026-1.417-.232-2.693-.773-3.828-.542-1.134-1.315-2.023-2.32-2.668-1.006-.644-2.204-.966-3.596-.966-1.47 0-2.759.335-3.867 1.005-1.083.67-1.921 1.611-2.513 2.823-.568 1.186-.851 2.539-.851 4.06 0 1.52.335 2.874 1.005 4.06a7.303 7.303 0 0 0 2.746 2.784c1.185.67 2.539 1.005 4.06 1.005.876 0 1.765-.155 2.668-.464.928-.31 1.662-.696 2.204-1.16a1.695 1.695 0 0 1 1.044-.348c.412-.026.747.077 1.005.31.387.334.58.695.58 1.082.026.387-.142.722-.503 1.005-.85.722-1.933 1.315-3.248 1.779-1.314.464-2.565.696-3.75.696Z" fill="#53575A"/><rect y="2.038" width="36.182" height="35.962" rx="7.25" fill="#28445D"/><path d="M17.646 30.788c-1.96 0-3.712-.464-5.259-1.392-1.547-.954-2.771-2.243-3.673-3.867-.903-1.624-1.354-3.454-1.354-5.49 0-2.063.464-3.906 1.392-5.53a10.395 10.395 0 0 1 3.867-3.828c1.624-.954 3.454-1.43 5.49-1.43 2.011 0 3.816.476 5.414 1.43a10.11 10.11 0 0 1 3.828 3.828c.954 1.624 1.444 3.467 1.47 5.53l-1.315.657c0 1.907-.439 3.621-1.315 5.142a9.716 9.716 0 0 1-3.519 3.635c-1.469.877-3.145 1.315-5.026 1.315Zm.464-2.939c1.443 0 2.72-.335 3.828-1.005a7.393 7.393 0 0 0 2.668-2.823c.67-1.186 1.005-2.513 1.005-3.983 0-1.495-.335-2.822-1.005-3.982a7.393 7.393 0 0 0-2.668-2.823c-1.109-.696-2.385-1.044-3.828-1.044-1.418 0-2.707.348-3.867 1.044a7.69 7.69 0 0 0-2.707 2.823c-.67 1.16-1.005 2.487-1.005 3.982 0 1.47.335 2.797 1.005 3.983a7.69 7.69 0 0 0 2.707 2.823c1.16.67 2.449 1.005 3.867 1.005Zm9.048 2.745c-.464 0-.864-.141-1.199-.425-.31-.31-.464-.709-.464-1.199v-6.38l.735-3.364 2.59.812v8.932c0 .49-.154.89-.464 1.199-.309.284-.709.425-1.198.425Z" fill="#EDEDED"/><circle cx="18.091" cy="20.019" r="2.38" fill="#EDEDED"/></svg>