<svg width="126" height="32" fill="none" xmlns="http://www.w3.org/2000/svg"><path d="M10.768 32c-2.051 0-3.886-.479-5.505-1.435a10.775 10.775 0 0 1-3.846-3.987C.472 24.904 0 23.018 0 20.918c0-2.127.486-4.027 1.457-5.701a10.804 10.804 0 0 1 4.048-3.947c1.7-.983 3.617-1.475 5.749-1.475 2.105 0 3.994.492 5.667 1.475 1.7.957 3.036 2.273 4.008 3.947.998 1.674 1.511 3.574 1.538 5.7l-1.376.678c0 1.967-.459 3.734-1.376 5.302a10.09 10.09 0 0 1-3.684 3.748C14.492 31.547 12.738 32 10.768 32Zm.486-3.03c1.511 0 2.847-.345 4.008-1.036a7.673 7.673 0 0 0 2.793-2.91c.701-1.223 1.052-2.592 1.052-4.106 0-1.542-.35-2.91-1.052-4.107a7.673 7.673 0 0 0-2.793-2.91c-1.16-.717-2.497-1.076-4.008-1.076-1.484 0-2.834.359-4.048 1.076a7.985 7.985 0 0 0-2.834 2.91c-.702 1.197-1.053 2.565-1.053 4.107 0 1.514.351 2.883 1.053 4.106a7.985 7.985 0 0 0 2.834 2.91c1.214.69 2.564 1.036 4.048 1.036Zm9.473 2.83c-.486 0-.904-.146-1.255-.438-.324-.319-.486-.73-.486-1.236V23.55l.769-3.469 2.712.838v9.208c0 .505-.162.917-.485 1.236-.324.292-.743.439-1.255.439Zm12.743 0c-1.134 0-2.133-.292-2.996-.877-.864-.61-1.538-1.448-2.024-2.51-.486-1.064-.729-2.287-.729-3.669V2.341c0-.505.148-.904.445-1.196.324-.319.742-.478 1.255-.478.486 0 .877.159 1.174.478.324.292.486.69.486 1.196v22.403c0 1.09.216 1.994.648 2.711.459.691 1.039 1.037 1.74 1.037h1.012c.432 0 .783.16 1.053.478.27.293.405.678.405 1.156 0 .505-.203.917-.607 1.236-.378.292-.877.439-1.498.439h-.365Zm15.092.2c-2.052 0-3.887-.479-5.506-1.435a10.774 10.774 0 0 1-3.846-3.987c-.944-1.674-1.417-3.56-1.417-5.66 0-2.127.486-4.027 1.458-5.701a10.805 10.805 0 0 1 4.048-3.947c1.7-.983 3.616-1.475 5.748-1.475 2.105 0 3.995.492 5.668 1.475 1.7.957 3.036 2.273 4.007 3.947.999 1.674 1.512 3.574 1.539 5.7l-1.377.678c0 1.967-.459 3.734-1.376 5.302a10.089 10.089 0 0 1-3.684 3.748C52.286 31.547 50.532 32 48.562 32Zm.485-3.03c1.512 0 2.848-.345 4.008-1.036a7.673 7.673 0 0 0 2.793-2.91c.702-1.223 1.053-2.592 1.053-4.106 0-1.542-.351-2.91-1.053-4.107a7.673 7.673 0 0 0-2.793-2.91c-1.16-.717-2.496-1.076-4.008-1.076-1.484 0-2.833.359-4.048 1.076a7.985 7.985 0 0 0-2.834 2.91c-.701 1.197-1.052 2.565-1.052 4.107 0 1.514.35 2.883 1.052 4.106A7.985 7.985 0 0 0 45 27.934c1.215.69 2.564 1.036 4.048 1.036Zm9.473 2.83c-.486 0-.904-.146-1.255-.438-.324-.319-.486-.73-.486-1.236V23.55l.77-3.469 2.712.838v9.208c0 .505-.162.917-.486 1.236-.324.292-.742.439-1.255.439Zm10.112 0c-.513 0-.931-.146-1.255-.438-.324-.319-.486-.744-.486-1.276V11.71c0-.532.162-.944.486-1.236.324-.319.742-.478 1.255-.478.512 0 .917.16 1.214.478.324.292.486.704.486 1.236v18.377c0 .532-.162.957-.486 1.276-.297.292-.702.439-1.215.439Zm-.04-25.752a2.28 2.28 0 0 1-1.66-.678c-.46-.478-.689-1.036-.689-1.674 0-.664.23-1.209.688-1.634a2.45 2.45 0 0 1 1.66-.638c.62 0 1.16.213 1.62.638.485.425.728.97.728 1.634 0 .638-.23 1.196-.688 1.674a2.28 2.28 0 0 1-1.66.678ZM97.089 31.8c-.513 0-.931-.159-1.255-.478-.324-.319-.486-.717-.486-1.196V19.961c0-1.621-.31-2.937-.93-3.947a5.57 5.57 0 0 0-2.47-2.312c-1.053-.531-2.254-.797-3.603-.797-1.269 0-2.416.252-3.441.757-.999.479-1.795 1.143-2.388 1.993-.594.824-.891 1.781-.891 2.87h-2.348c.054-1.674.5-3.162 1.336-4.464a9.279 9.279 0 0 1 3.44-3.15c1.431-.77 3.023-1.155 4.778-1.155 1.889 0 3.575.398 5.06 1.195 1.511.771 2.699 1.914 3.562 3.429.89 1.515 1.336 3.375 1.336 5.58v10.166c0 .479-.162.877-.486 1.196-.323.32-.728.479-1.214.479Zm-17.164 0c-.54 0-.972-.146-1.296-.438-.297-.319-.445-.73-.445-1.236V11.71c0-.532.148-.944.445-1.236.324-.319.756-.478 1.296-.478.512 0 .917.16 1.214.478.324.292.486.704.486 1.236v18.417c0 .505-.162.917-.486 1.236-.297.292-.702.439-1.214.439Zm35.895.2c-2.213 0-4.169-.465-5.87-1.395a10.501 10.501 0 0 1-4.007-3.947c-.972-1.674-1.458-3.588-1.458-5.74 0-2.18.459-4.093 1.377-5.74.917-1.675 2.172-2.99 3.764-3.948 1.62-.956 3.482-1.435 5.587-1.435 2.051 0 3.832.466 5.344 1.396 1.538.903 2.712 2.166 3.521 3.787.837 1.62 1.255 3.468 1.255 5.54 0 .453-.148.825-.445 1.117-.297.266-.675.399-1.133.399h-16.922v-2.75h17.124l-1.741 1.195c.027-1.462-.243-2.777-.809-3.947-.567-1.169-1.377-2.086-2.429-2.75-1.053-.665-2.308-.997-3.765-.997-1.538 0-2.888.346-4.048 1.037-1.134.69-2.011 1.66-2.632 2.91-.593 1.222-.89 2.618-.89 4.186s.351 2.963 1.052 4.185a7.586 7.586 0 0 0 2.875 2.87c1.241.692 2.658 1.037 4.25 1.037.918 0 1.849-.16 2.793-.478.972-.32 1.741-.718 2.308-1.196a1.79 1.79 0 0 1 1.093-.36c.432-.026.782.08 1.052.32.405.345.608.717.608 1.116.027.399-.149.744-.527 1.037-.89.744-2.024 1.355-3.4 1.833-1.376.479-2.685.718-3.927.718Z" fill="#53575A"/></svg>