<svg width="106" height="74" fill="none" xmlns="http://www.w3.org/2000/svg"><path fill-rule="evenodd" clip-rule="evenodd" d="M20.377 49.425C8.77 47.199 0 37.075 0 24.939 0 11.174 11.285 0 25.189 0c13.903 0 25.188 11.174 25.188 24.94 0 18.344-6.242 29.737-13.568 36.86-11.216 10.903-25.262 11.85-25.262 11.85a3.7 3.7 0 0 1-3.486-1.86 3.616 3.616 0 0 1 .207-3.91s6.675-9.303 10.837-16.186c.433-.723.872-1.519 1.272-2.27Zm55.623 0c-11.606-2.226-20.377-12.35-20.377-24.486C55.623 11.174 66.908 0 80.812 0 94.715 0 106 11.174 106 24.94c0 18.344-6.242 29.737-13.568 36.86C81.216 72.703 67.17 73.65 67.17 73.65a3.7 3.7 0 0 1-3.486-1.86 3.626 3.626 0 0 1 .207-3.91s6.676-9.303 10.837-16.186A50.91 50.91 0 0 0 76 49.425Z" fill="#28445D"/></svg>