<svg width="183" height="45" fill="none" xmlns="http://www.w3.org/2000/svg"><mask id="a" style="mask-type:luminance" maskUnits="userSpaceOnUse" x="0" y="0" width="183" height="45"><path d="M0 0h183v44.931H0V0Z" fill="#fff"/></mask><g mask="url(#a)"><path d="M48.065 15.95h18.513v3.49h-7.263v19.439h-3.987v-19.51h-7.264V15.95Zm17.73 6.266h3.418v3.205h.07a5.39 5.39 0 0 1 .642-1.282 4.333 4.333 0 0 1 1.14-1.14c.426-.355.925-.64 1.423-.854a4.224 4.224 0 0 1 1.638-.356h.854c.143 0 .356.071.499.071v3.49c-.285-.072-.499-.072-.783-.143-.285 0-.499-.071-.784-.071-.64 0-1.21.142-1.709.356-.57.213-.996.64-1.424 1.068-.427.498-.712 1.068-.997 1.78a8.25 8.25 0 0 0-.356 2.421v7.904h-3.631V22.216Zm26.56 16.591h-3.632V36.53h-.071c-.427.854-1.14 1.495-1.994 1.994-.854.498-1.78.783-2.706.783-2.207 0-3.773-.499-4.7-1.638-.996-1.068-1.423-2.706-1.423-4.913v-10.54h3.631V32.4c0 1.424.285 2.492.855 3.062.57.57 1.353.925 2.35.925.783 0 1.424-.142 1.922-.356.498-.213.926-.57 1.21-.925.357-.356.57-.855.713-1.424a7.2 7.2 0 0 0 .213-1.78v-9.613h3.632v16.52Zm6.195-5.34c.142 1.068.498 1.78 1.21 2.279.712.427 1.567.64 2.564.64.356 0 .712 0 1.139-.07.427-.072.854-.143 1.21-.286.356-.142.712-.356.926-.64.214-.285.356-.641.356-1.14 0-.498-.213-.854-.498-1.14a4.932 4.932 0 0 0-1.211-.711c-.498-.143-1.068-.356-1.709-.499l-1.922-.427c-.712-.142-1.353-.356-1.994-.57a6.399 6.399 0 0 1-1.71-.854 3.923 3.923 0 0 1-1.21-1.424c-.284-.57-.427-1.282-.427-2.065 0-.926.214-1.638.641-2.279.427-.64.997-1.068 1.638-1.495.712-.356 1.424-.64 2.278-.783a14.383 14.383 0 0 1 2.35-.214c.855 0 1.709.071 2.421.285.783.142 1.496.498 2.136.854.641.428 1.14.926 1.567 1.567.427.64.712 1.424.783 2.35h-3.845c-.142-.855-.57-1.496-1.21-1.78-.641-.285-1.353-.428-2.137-.428-.284 0-.569 0-.925.072-.356.07-.712.142-.997.213-.285.143-.57.285-.784.499a1.18 1.18 0 0 0-.355.854c0 .427.142.783.498 1.068.285.285.712.499 1.21.712.499.143 1.069.356 1.709.499.641.142 1.282.285 1.994.427.641.142 1.282.356 1.923.57.641.213 1.21.498 1.709.854.498.356.925.854 1.21 1.353.285.498.499 1.21.499 2.065 0 .997-.214 1.78-.712 2.492-.428.712-1.069 1.21-1.709 1.638-.712.427-1.496.712-2.421.926-.855.213-1.709.284-2.635.284-1.068 0-1.994-.142-2.92-.356-.854-.213-1.637-.57-2.278-1.068a6.272 6.272 0 0 1-1.567-1.78c-.356-.712-.57-1.566-.57-2.563l3.775.07Zm12.034-11.25h2.777v-4.985h3.631v4.984h3.276v2.706h-3.276v8.83c0 .356 0 .712.071.997 0 .284.143.498.214.712.142.213.285.356.498.427.214.071.57.142.997.142h.784c.284 0 .498-.07.783-.142v2.848c-.427.071-.783.071-1.211.143-.356.07-.783.07-1.21.07-.997 0-1.709-.07-2.35-.284-.57-.142-1.068-.427-1.353-.783-.356-.356-.57-.784-.712-1.353-.142-.499-.214-1.14-.214-1.852v-9.684h-2.777l.072-2.777Zm12.318 0h3.489v2.278h.072c.498-.997 1.21-1.638 2.136-2.065a7.044 7.044 0 0 1 2.99-.64c1.282 0 2.421.213 3.418.711.997.427 1.78 1.068 2.421 1.923.641.783 1.14 1.78 1.424 2.777.356 1.068.499 2.207.499 3.418 0 1.139-.143 2.207-.427 3.204-.285 1.068-.712 1.994-1.282 2.777-.57.783-1.353 1.424-2.208 1.923-.925.498-1.922.712-3.204.712-.498 0-1.068-.072-1.566-.143-.499-.071-1.068-.285-1.567-.498a5.421 5.421 0 0 1-1.353-.855c-.427-.356-.783-.712-1.068-1.139h-.071v8.26h-3.632V22.216h-.071Zm12.746 8.33c0-.712-.071-1.495-.285-2.207-.213-.712-.498-1.353-.854-1.851a3.52 3.52 0 0 0-1.424-1.282c-.57-.356-1.211-.498-1.994-.498-1.567 0-2.706.498-3.489 1.566-.783 1.068-1.139 2.492-1.139 4.273 0 .854.071 1.637.284 2.35.214.711.499 1.352.926 1.85.427.5.854.926 1.424 1.211.57.285 1.211.427 1.994.427.854 0 1.566-.142 2.136-.498.57-.356 1.068-.783 1.424-1.353.356-.57.641-1.14.783-1.851.143-.712.214-1.424.214-2.136Zm6.409-14.597h3.631v3.49h-3.631v-3.49Zm0 6.266h3.631v16.591h-3.631v-16.59Zm6.907-6.266h3.631v22.857h-3.631V15.95Zm14.882 23.285c-1.353 0-2.492-.214-3.561-.641-1.068-.428-1.922-1.068-2.634-1.78a7.76 7.76 0 0 1-1.638-2.777 11.197 11.197 0 0 1-.57-3.49c0-1.281.214-2.42.57-3.489a7.76 7.76 0 0 1 1.638-2.777c.712-.783 1.566-1.353 2.634-1.78 1.069-.427 2.208-.64 3.561-.64 1.353 0 2.492.213 3.56.64 1.068.427 1.923 1.068 2.635 1.78a7.758 7.758 0 0 1 1.637 2.777c.357 1.069.57 2.208.57 3.49 0 1.281-.213 2.42-.57 3.489a7.757 7.757 0 0 1-1.637 2.777c-.712.783-1.567 1.352-2.635 1.78-1.068.427-2.207.64-3.56.64Zm0-2.849c.783 0 1.495-.142 2.136-.498a5.373 5.373 0 0 0 1.495-1.353 8.76 8.76 0 0 0 .855-1.851c.142-.712.285-1.424.285-2.136 0-.713-.072-1.425-.285-2.137-.143-.712-.499-1.353-.855-1.851-.356-.57-.854-.997-1.495-1.353-.57-.356-1.282-.498-2.136-.498-.783 0-1.496.142-2.136.498a5.393 5.393 0 0 0-1.496 1.353 7.343 7.343 0 0 0-.854 1.851c-.143.712-.285 1.424-.285 2.136 0 .712.071 1.425.285 2.137.142.712.498 1.353.854 1.851.356.57.855.997 1.496 1.353.64.356 1.353.498 2.136.498Zm9.399-14.17h2.777v-4.984h3.632v4.984h3.275v2.706h-3.275v8.83c0 .356 0 .712.071.997 0 .284.142.498.213.712.143.213.285.356.499.427.213.071.569.142.997.142h.783c.285 0 .498-.07.783-.142v2.848c-.427.071-.783.071-1.21.143-.356.07-.784.07-1.211.07-.997 0-1.709-.07-2.35-.284-.569-.142-1.068-.427-1.352-.783-.357-.356-.57-.784-.713-1.353-.142-.499-.213-1.14-.213-1.852v-9.684h-2.777l.071-2.777Z" fill="#191919"/><path d="M43.792 15.95H27.058L21.931 0l-5.198 15.95L0 15.88l13.53 9.826-5.199 15.88 13.53-9.827 13.528 9.826-5.198-15.879 13.6-9.755Z" fill="#04DA8D"/><path d="m31.473 29.337-1.139-3.631-8.402 6.052 9.541-2.42Z" fill="#005128"/></g></svg>